<svg width="38" height="38" viewBox="0 0 38 38" fill="none" xmlns="http://www.w3.org/2000/svg">
<g clip-path="url(#clip0_2_535)">
<path d="M11.6667 29.4583H6.54167V12.375H11.6667V29.4583ZM30.4583 29.4583H25.3333V20.3324C25.3333 17.9544 24.486 16.7705 22.8067 16.7705C21.4759 16.7705 20.632 17.4334 20.2083 18.7608V29.4583H15.0833C15.0833 29.4583 15.1517 14.0833 15.0833 12.375H19.1287L19.4413 15.7917H19.5472C20.5978 14.0833 22.2771 12.9251 24.58 12.9251C26.331 12.9251 27.7472 13.412 28.8286 14.6351C29.9168 15.86 30.4583 17.5034 30.4583 19.8114V29.4583Z" fill="white"/>
<path d="M9.10417 10.6665C10.5666 10.6665 11.7521 9.51923 11.7521 8.104C11.7521 6.68877 10.5666 5.5415 9.10417 5.5415C7.64176 5.5415 6.45625 6.68877 6.45625 8.104C6.45625 9.51923 7.64176 10.6665 9.10417 10.6665Z" fill="white"/>
<rect x="1.5" y="1.5" width="35" height="35" rx="3.5" stroke="white" stroke-width="3"/>
</g>
<defs>
<clipPath id="clip0_2_535">
<rect width="38" height="38" fill="white"/>
</clipPath>
</defs>
</svg>
