<svg width="215" height="48" viewBox="0 0 215 48" fill="none" xmlns="http://www.w3.org/2000/svg">
<path d="M209.054 19.4399C210.192 19.4399 211.205 19.671 212.094 20.1332C213 20.5776 213.711 21.2709 214.227 22.213C214.742 23.1373 215 24.3283 215 25.786V33.9984H210.84V26.4259C210.84 25.2705 210.583 24.4172 210.067 23.8662C209.57 23.3151 208.858 23.0396 207.934 23.0396C207.276 23.0396 206.681 23.1818 206.148 23.4662C205.632 23.7328 205.223 24.1506 204.921 24.7194C204.637 25.2882 204.494 26.017 204.494 26.9058V33.9984H200.335V19.6533H204.308V23.6262L203.561 22.4263C204.077 21.4664 204.814 20.7287 205.774 20.2132C206.734 19.6977 207.827 19.4399 209.054 19.4399Z" fill="white"/>
<path d="M192.315 33.9987V19.6535H196.474V33.9987H192.315ZM194.395 17.6537C193.63 17.6537 193.008 17.4315 192.528 16.9871C192.048 16.5427 191.808 15.9916 191.808 15.3339C191.808 14.6762 192.048 14.1252 192.528 13.6808C193.008 13.2364 193.63 13.0142 194.395 13.0142C195.159 13.0142 195.781 13.2275 196.261 13.6541C196.741 14.0629 196.981 14.5962 196.981 15.2539C196.981 15.9472 196.741 16.5249 196.261 16.9871C195.799 17.4315 195.177 17.6537 194.395 17.6537Z" fill="white"/>
<path d="M184.657 33.9984V31.1987L184.391 30.5855V25.5726C184.391 24.6838 184.115 23.9906 183.564 23.4929C183.031 22.9951 182.204 22.7463 181.084 22.7463C180.32 22.7463 179.565 22.8707 178.818 23.1196C178.089 23.3507 177.467 23.6706 176.951 24.0795L175.458 21.1731C176.24 20.622 177.183 20.1954 178.285 19.8932C179.387 19.591 180.507 19.4399 181.644 19.4399C183.831 19.4399 185.528 19.9554 186.737 20.9864C187.946 22.0175 188.55 23.6262 188.55 25.8126V33.9984H184.657ZM180.284 34.2118C179.165 34.2118 178.205 34.0251 177.405 33.6518C176.605 33.2607 175.992 32.7364 175.565 32.0786C175.138 31.4209 174.925 30.6832 174.925 29.8655C174.925 29.0123 175.129 28.2657 175.538 27.6258C175.965 26.9858 176.631 26.4881 177.538 26.1326C178.445 25.7593 179.627 25.5726 181.084 25.5726H184.897V27.9991H181.538C180.56 27.9991 179.884 28.159 179.511 28.479C179.156 28.799 178.978 29.1989 178.978 29.6789C178.978 30.2122 179.182 30.6388 179.591 30.9588C180.018 31.261 180.596 31.412 181.324 31.412C182.018 31.412 182.64 31.2521 183.191 30.9321C183.742 30.5944 184.142 30.1055 184.391 29.4656L185.031 31.3854C184.728 32.3097 184.177 33.0119 183.377 33.4918C182.578 33.9718 181.547 34.2118 180.284 34.2118Z" fill="white"/>
<path d="M166.142 19.44C167.279 19.44 168.293 19.6711 169.181 20.1333C170.088 20.5777 170.799 21.2709 171.315 22.213C171.83 23.1374 172.088 24.3284 172.088 25.786V33.9985H167.928V26.4259C167.928 25.2705 167.67 24.4173 167.155 23.8662C166.657 23.3152 165.946 23.0396 165.022 23.0396C164.364 23.0396 163.769 23.1818 163.235 23.4663C162.72 23.7329 162.311 24.1506 162.009 24.7195C161.724 25.2883 161.582 26.0171 161.582 26.9059V33.9985H157.423V14.2139H161.582V23.6262L160.649 22.4264C161.164 21.4665 161.902 20.7288 162.862 20.2133C163.822 19.6977 164.915 19.44 166.142 19.44Z" fill="white"/>
<path d="M148.68 34.2118C147.133 34.2118 145.756 33.9007 144.547 33.2785C143.338 32.6386 142.387 31.7587 141.694 30.6388C141.018 29.5189 140.681 28.2479 140.681 26.8258C140.681 25.386 141.018 24.115 141.694 23.0129C142.387 21.893 143.338 21.022 144.547 20.3998C145.756 19.7599 147.133 19.4399 148.68 19.4399C150.191 19.4399 151.506 19.7599 152.626 20.3998C153.746 21.022 154.573 21.9197 155.106 23.0929L151.879 24.8261C151.506 24.1506 151.035 23.6528 150.466 23.3329C149.915 23.0129 149.311 22.8529 148.653 22.8529C147.942 22.8529 147.302 23.0129 146.733 23.3329C146.164 23.6528 145.711 24.1061 145.373 24.6927C145.053 25.2793 144.894 25.9904 144.894 26.8258C144.894 27.6613 145.053 28.3724 145.373 28.959C145.711 29.5456 146.164 29.9989 146.733 30.3188C147.302 30.6388 147.942 30.7988 148.653 30.7988C149.311 30.7988 149.915 30.6477 150.466 30.3455C151.035 30.0255 151.506 29.5189 151.879 28.8256L155.106 30.5855C154.573 31.7409 153.746 32.6386 152.626 33.2785C151.506 33.9007 150.191 34.2118 148.68 34.2118Z" fill="white"/>
<path d="M132.045 34.2118C130.41 34.2118 128.97 33.8918 127.726 33.2519C126.499 32.6119 125.548 31.7409 124.873 30.6388C124.197 29.5189 123.859 28.2479 123.859 26.8258C123.859 25.386 124.188 24.115 124.846 23.0129C125.521 21.893 126.437 21.022 127.592 20.3998C128.748 19.7599 130.054 19.4399 131.512 19.4399C132.916 19.4399 134.178 19.7421 135.298 20.3465C136.436 20.9331 137.334 21.7864 137.991 22.9063C138.649 24.0084 138.978 25.3327 138.978 26.8792C138.978 27.0392 138.969 27.2258 138.951 27.4391C138.933 27.6347 138.916 27.8213 138.898 27.9991H127.246V25.5726H136.711L135.112 26.2926C135.112 25.546 134.96 24.8972 134.658 24.3461C134.356 23.7951 133.938 23.3684 133.405 23.0662C132.872 22.7463 132.25 22.5863 131.539 22.5863C130.828 22.5863 130.197 22.7463 129.645 23.0662C129.112 23.3684 128.694 23.8039 128.392 24.3728C128.09 24.9238 127.939 25.5815 127.939 26.3459V26.9858C127.939 27.768 128.108 28.4612 128.446 29.0656C128.801 29.6522 129.29 30.1055 129.912 30.4255C130.552 30.7277 131.299 30.8788 132.152 30.8788C132.916 30.8788 133.583 30.7632 134.152 30.5321C134.738 30.301 135.272 29.9544 135.751 29.4922L137.965 31.892C137.307 32.6386 136.48 33.2163 135.485 33.6252C134.489 34.0162 133.343 34.2118 132.045 34.2118Z" fill="white"/>
<path d="M116.906 33.9985V14.2139H121.066V33.9985H116.906Z" fill="white"/>
<path d="M108.163 34.2118C106.617 34.2118 105.239 33.9007 104.03 33.2785C102.821 32.6386 101.87 31.7587 101.177 30.6388C100.502 29.5189 100.164 28.2479 100.164 26.8258C100.164 25.386 100.502 24.115 101.177 23.0129C101.87 21.893 102.821 21.022 104.03 20.3998C105.239 19.7599 106.617 19.4399 108.163 19.4399C109.674 19.4399 110.989 19.7599 112.109 20.3998C113.229 21.022 114.056 21.9197 114.589 23.0929L111.363 24.8261C110.989 24.1506 110.518 23.6528 109.95 23.3329C109.398 23.0129 108.794 22.8529 108.136 22.8529C107.425 22.8529 106.785 23.0129 106.217 23.3329C105.648 23.6528 105.194 24.1061 104.857 24.6927C104.537 25.2793 104.377 25.9904 104.377 26.8258C104.377 27.6613 104.537 28.3724 104.857 28.959C105.194 29.5456 105.648 29.9989 106.217 30.3188C106.785 30.6388 107.425 30.7988 108.136 30.7988C108.794 30.7988 109.398 30.6477 109.95 30.3455C110.518 30.0255 110.989 29.5189 111.363 28.8256L114.589 30.5855C114.056 31.7409 113.229 32.6386 112.109 33.2785C110.989 33.9007 109.674 34.2118 108.163 34.2118Z" fill="white"/>
<path d="M89.9556 33.9984V19.6533H93.9285V23.7062L93.3685 22.533C93.7952 21.5197 94.4795 20.7554 95.4217 20.2399C96.3638 19.7066 97.5103 19.4399 98.8613 19.4399V23.2795C98.6836 23.2618 98.5236 23.2529 98.3814 23.2529C98.2392 23.2351 98.0881 23.2262 97.9281 23.2262C96.7904 23.2262 95.8661 23.5551 95.155 24.2128C94.4618 24.8527 94.1151 25.8571 94.1151 27.2258V33.9984H89.9556Z" fill="white"/>
<path d="M81.9356 33.9987V19.6535H86.0951V33.9987H81.9356ZM84.0154 17.6537C83.251 17.6537 82.6288 17.4315 82.1489 16.9871C81.6689 16.5427 81.429 15.9916 81.429 15.3339C81.429 14.6762 81.6689 14.1252 82.1489 13.6808C82.6288 13.2364 83.251 13.0142 84.0154 13.0142C84.7797 13.0142 85.4019 13.2275 85.8818 13.6541C86.3618 14.0629 86.6018 14.5962 86.6018 15.2539C86.6018 15.9472 86.3618 16.5249 85.8818 16.9871C85.4197 17.4315 84.7975 17.6537 84.0154 17.6537Z" fill="white"/>
<path d="M71.606 34.3184C70.1661 34.3184 68.8241 34.0873 67.5797 33.6251C66.3532 33.1451 65.2866 32.4697 64.3801 31.5986C63.4735 30.7276 62.7625 29.7055 62.247 28.5323C61.7492 27.3591 61.5004 26.0703 61.5004 24.666C61.5004 23.2617 61.7492 21.973 62.247 20.7997C62.7625 19.6265 63.4735 18.6044 64.3801 17.7334C65.3044 16.8624 66.3799 16.1958 67.6064 15.7336C68.8329 15.2536 70.175 15.0137 71.6327 15.0137C73.2503 15.0137 74.7079 15.2981 76.0055 15.8669C77.321 16.418 78.4231 17.2357 79.3119 18.32L76.5388 20.8797C75.8989 20.1509 75.1879 19.6088 74.4057 19.2532C73.6236 18.8799 72.7703 18.6933 71.846 18.6933C70.9749 18.6933 70.175 18.8355 69.4462 19.1199C68.7174 19.4043 68.0864 19.8132 67.5531 20.3465C67.0198 20.8797 66.6021 21.5108 66.2999 22.2396C66.0155 22.9684 65.8733 23.7772 65.8733 24.666C65.8733 25.5548 66.0155 26.3636 66.2999 27.0924C66.6021 27.8212 67.0198 28.4523 67.5531 28.9856C68.0864 29.5189 68.7174 29.9277 69.4462 30.2121C70.175 30.4965 70.9749 30.6387 71.846 30.6387C72.7703 30.6387 73.6236 30.461 74.4057 30.1055C75.1879 29.7322 75.8989 29.1722 76.5388 28.4256L79.3119 30.9854C78.4231 32.0697 77.321 32.8963 76.0055 33.4651C74.7079 34.0339 73.2414 34.3184 71.606 34.3184Z" fill="white"/>
<path d="M17 8.5C17 13.1944 13.1944 17 8.5 17C3.80558 17 0 13.1944 0 8.5C0 3.80558 3.80558 0 8.5 0C13.1944 0 17 3.80558 17 8.5Z" fill="white"/>
<path d="M17 39.5C17 44.1944 13.1944 48 8.5 48C3.80558 48 0 44.1944 0 39.5C0 34.8056 3.80558 31 8.5 31C13.1944 31 17 34.8056 17 39.5Z" fill="white"/>
<path d="M49 39.5C49 44.1944 45.1944 48 40.5 48C35.8056 48 32 44.1944 32 39.5C32 34.8056 35.8056 31 40.5 31C45.1944 31 49 34.8056 49 39.5Z" fill="white"/>
<path d="M49 8.5C49 13.1944 45.1944 17 40.5 17C35.8056 17 32 13.1944 32 8.5C32 3.80558 35.8056 0 40.5 0C45.1944 0 49 3.80558 49 8.5Z" fill="white"/>
<path fill-rule="evenodd" clip-rule="evenodd" d="M13 7H35V9H13V7Z" fill="white"/>
<path fill-rule="evenodd" clip-rule="evenodd" d="M9 35V13H12V35H9Z" fill="white"/>
<path fill-rule="evenodd" clip-rule="evenodd" d="M37 42H13V39H37V42Z" fill="white"/>
<path fill-rule="evenodd" clip-rule="evenodd" d="M41.5 23C42.3284 23 43 23.5596 43 24.25V36.75C43 37.4404 42.3284 38 41.5 38C40.6716 38 40 37.4404 40 36.75V24.25C40 23.5596 40.6716 23 41.5 23Z" fill="white"/>
</svg>
