<svg width="615" height="417" viewBox="0 0 615 417" fill="none" xmlns="http://www.w3.org/2000/svg">
<path d="M48.4592 105.853H195.613L261.832 172.157H380.781L420.635 130.41H518.737" stroke="#BBFFFF" stroke-width="2" stroke-linecap="round" stroke-linejoin="round"/>
<path d="M115.292 242.759H212.168L377.102 77.6125H603.35" stroke="#BBFFFF" stroke-width="2" stroke-linecap="round" stroke-linejoin="round"/>
<ellipse cx="231.175" cy="29.7265" rx="29.4307" ry="29.4684" fill="url(#paint0_linear_2_76)"/>
<ellipse cx="98.7366" cy="105.853" rx="3.67884" ry="3.68355" fill="#BBFFFF"/>
<path d="M84.0214 104.625L98.7367 102.17V109.537L84.0214 107.081V104.625Z" fill="url(#paint1_linear_2_76)"/>
<path d="M184.576 116.904L222.591 154.967" stroke="#BBFFFF" stroke-width="2" stroke-linecap="round" stroke-linejoin="round"/>
<path d="M226.27 158.651L236.08 168.474" stroke="#BBFFFF" stroke-width="2" stroke-linecap="round" stroke-linejoin="round"/>
<path d="M416.343 244.601L454.357 282.664" stroke="#BBFFFF" stroke-width="2" stroke-linecap="round" stroke-linejoin="round"/>
<path d="M458.036 286.347L467.846 296.17" stroke="#BBFFFF" stroke-width="2" stroke-linecap="round" stroke-linejoin="round"/>
<path d="M431.058 146.274H539.584" stroke="#BBFFFF" stroke-width="2" stroke-linecap="round" stroke-linejoin="round"/>
<path d="M545.102 146.274H558.976" stroke="#BBFFFF" stroke-width="2" stroke-linecap="round" stroke-linejoin="round"/>
<path d="M564.723 146.274H593.54" stroke="#BBFFFF" stroke-width="2" stroke-linecap="round" stroke-linejoin="round"/>
<path d="M83.4083 226.49H145.948" stroke="#BBFFFF" stroke-width="2" stroke-linecap="round" stroke-linejoin="round"/>
<path d="M151.467 226.49H165.34" stroke="#BBFFFF" stroke-width="2" stroke-linecap="round" stroke-linejoin="round"/>
<path d="M171.087 226.49H199.905" stroke="#BBFFFF" stroke-width="2" stroke-linecap="round" stroke-linejoin="round"/>
<ellipse cx="473.978" cy="130.41" rx="3.67884" ry="3.68355" fill="#BBFFFF"/>
<path d="M459.263 129.183L473.978 126.727V134.094L459.263 131.638V129.183Z" fill="url(#paint2_linear_2_76)"/>
<ellipse cx="563.496" cy="77.6128" rx="3.67884" ry="3.68355" fill="#BBFFFF"/>
<path d="M548.781 76.3849L563.496 73.9292V81.2963L548.781 78.8406V76.3849Z" fill="url(#paint3_linear_2_76)"/>
<path d="M65.6271 315.816H204.197L296.781 223.113H418.182L469.073 274.069H571.467" stroke="#BBFFFF" stroke-width="2" stroke-linecap="round" stroke-linejoin="round"/>
<ellipse cx="175.992" cy="315.816" rx="3.67884" ry="3.68355" fill="#BBFFFF"/>
<path d="M161.277 314.588L175.992 312.132V319.499L161.277 317.044V314.588Z" fill="url(#paint4_linear_2_76)"/>
<path d="M208.601 144.716C208.601 144.716 187.987 187.786 208.109 256.654C208.259 257.168 208.441 257.672 208.601 258.175C223.864 303.913 385.664 291.388 413.674 275.843C413.674 275.843 444.306 207.081 416.339 142.316C416.35 142.316 302.875 91.8645 208.601 144.716Z" fill="#73FDAA"/>
<g style="mix-blend-mode:soft-light">
<mask id="mask0_2_76" style="mask-type:alpha" maskUnits="userSpaceOnUse" x="199" y="120" width="230" height="171">
<path d="M208.601 144.716C208.601 144.716 187.987 187.786 208.109 256.654C208.259 257.168 208.441 257.672 208.601 258.175C223.864 303.913 385.664 291.388 413.674 275.843C413.674 275.843 444.307 207.081 416.339 142.316C416.35 142.316 302.875 91.8645 208.601 144.716Z" fill="#315EFB"/>
</mask>
<g mask="url(#mask0_2_76)">
<g style="mix-blend-mode:soft-light">
<path d="M200.588 166.541C200.588 166.541 194.398 201.429 207.96 260.091C207.96 260.091 213.715 290.981 300.038 295.965C375.945 300.35 414.913 279.163 414.913 279.163C414.913 279.163 429.928 253.34 431.623 240.741C431.623 240.741 338.251 278.348 246.174 247.351C193.854 229.739 200.588 166.541 200.588 166.541Z" fill="url(#paint5_linear_2_76)"/>
</g>
</g>
</g>
<path d="M425.464 233.789L426.443 229.233C426.443 229.233 407.2 232.916 389.948 231.532C372.697 230.149 367.92 224.251 365.319 216.788C365.319 216.788 364.571 233.417 388.337 235.759C412.413 238.143 425.464 233.789 425.464 233.789Z" fill="white"/>
<path d="M429.776 229.452C429.776 229.452 435.128 214.452 431.264 191.342C431.264 191.342 416.483 182.996 389.19 185.439C361.897 187.882 359.617 207.37 364.808 221.813C370.555 237.755 406.796 235.119 429.776 229.452Z" fill="#010010"/>
<circle cx="383.965" cy="210.572" r="14.5044" fill="white"/>
<path d="M397.088 210.572C397.088 217.82 391.213 223.695 383.965 223.695C376.718 223.695 370.842 217.82 370.842 210.572C370.842 210.572 377.749 213.335 386.728 207.81C397.088 201.434 397.088 210.572 397.088 210.572Z" fill="url(#paint6_linear_2_76)"/>
<path fill-rule="evenodd" clip-rule="evenodd" d="M379.464 208.406C380.956 208.406 382.165 207.188 382.165 205.685C382.165 204.183 380.956 202.965 379.464 202.965C377.973 202.965 376.764 204.183 376.764 205.685C376.764 207.188 377.973 208.406 379.464 208.406Z" fill="#73FDAA"/>
<path fill-rule="evenodd" clip-rule="evenodd" d="M388.466 217.476C389.957 217.476 391.166 216.257 391.166 214.755C391.166 213.252 389.957 212.034 388.466 212.034C386.975 212.034 385.766 213.252 385.766 214.755C385.766 216.257 386.975 217.476 388.466 217.476Z" fill="#73FDAA"/>
<path fill-rule="evenodd" clip-rule="evenodd" d="M388.398 203.872C386.868 203.872 385.628 205.122 385.628 206.663C385.628 208.204 386.868 209.453 388.398 209.453C389.927 209.453 391.167 208.204 391.167 206.663C391.167 205.122 389.927 203.872 388.398 203.872Z" fill="#73FDAA"/>
<path fill-rule="evenodd" clip-rule="evenodd" d="M379.535 212.801C378.005 212.801 376.765 214.051 376.765 215.592C376.765 217.133 378.005 218.382 379.535 218.382C381.064 218.382 382.304 217.133 382.304 215.592C382.304 214.051 381.064 212.801 379.535 212.801Z" fill="#73FDAA"/>
<path d="M232.693 46.1331C240.407 15.216 300.806 2.88603 330.042 0.585651C378.257 -3.2082 374.584 26.8099 330.042 46.1331C315.53 52.4287 306.164 80.1787 275.857 87.9999C264.117 91.0297 223.05 84.7794 232.693 46.1331Z" fill="url(#paint7_linear_2_76)"/>
<circle cx="3.6812" cy="3.6812" r="3.6812" transform="matrix(0.706653 0.70756 -0.706653 0.70756 446.517 246.275)" fill="#BBFFFF"/>
<path d="M436.979 240.198L449.119 248.88L443.916 254.089L435.245 241.934L436.979 240.198Z" fill="url(#paint8_linear_2_76)"/>
<path d="M2.62622 257.001C-4.51887 240.375 9.26749 233.621 17.0538 232.322C57.5883 232.322 87.1308 257.001 107.742 262.197C128.352 267.393 156.521 266.094 193.62 286.227C230.72 306.36 238.277 324.545 258.201 343.379C278.125 362.213 294.613 350.523 322.094 352.471C349.575 354.42 359.194 373.903 322.094 388.841C284.995 403.778 267.132 389.49 238.277 388.841C209.422 388.191 171.635 356.368 156.521 334.936C141.406 313.504 118.047 295.319 87.1308 292.072C56.2146 288.825 11.5576 277.784 2.62622 257.001Z" fill="url(#paint9_linear_2_76)"/>
<path d="M341.049 341.451L415.496 393.19L295.145 416.742L341.049 341.451Z" fill="url(#paint10_linear_2_76)"/>
<path fill-rule="evenodd" clip-rule="evenodd" d="M541.994 321.392C542.986 315.609 548.481 311.71 554.266 312.704V312.704C560.051 313.698 563.934 319.209 562.943 324.992V324.992C561.952 330.774 556.456 334.674 550.671 333.68V333.68C544.886 332.685 541.003 327.175 541.994 321.392V321.392ZM551.323 322.123L546.27 321.255L545.359 323.057L550.411 323.926L551.323 322.123V322.123ZM558.626 320.097C559.058 320.172 559.596 320.47 559.781 321.06C559.967 321.649 559.842 321.914 559.516 322.606L559.516 322.607C559.191 323.3 558.162 325.369 557.762 326.097C557.361 326.825 556.755 327.39 556.058 327.652L555.996 327.676C555.344 327.921 555.07 328.025 554.211 327.877L545.141 326.319L546.135 324.355L554.665 325.821L556.651 321.892L548.188 320.438L549.183 318.475L558.626 320.097Z" fill="#73FDAA"/>
<path fill-rule="evenodd" clip-rule="evenodd" d="M479.842 347.789C485.103 339.64 495.996 337.284 504.15 342.562V342.562C512.305 347.839 514.632 358.752 509.372 366.901V366.901C504.111 375.05 493.218 377.406 485.063 372.129V372.129C476.909 366.851 474.582 355.938 479.842 347.789V347.789ZM486.222 356.851L487.952 357.209L483.814 361.117L496.295 369.195L499.379 366.276L491.894 361.432L494.898 358.583L496.639 358.924L499.022 356.681L497.297 356.351L502.651 351.29L497.68 348.072L490.381 354.948L488.618 354.605L486.222 356.851L486.222 356.851Z" fill="#73FDAA"/>
<path d="M506.737 209.887C508.093 198.634 514.763 194.677 517.928 194.105C531.832 198.222 548.11 186.557 560.319 189.988C572.528 193.419 582.023 209.887 587.788 215.377C593.553 220.866 623.058 226.356 612.884 243.511C602.71 260.665 587.11 243.511 563.032 238.707C538.954 233.904 540.65 249.343 529.798 254.147C518.946 258.95 510.467 251.402 506.737 243.511C503.006 235.619 505.041 223.954 506.737 209.887Z" fill="url(#paint11_linear_2_76)"/>
<path fill-rule="evenodd" clip-rule="evenodd" d="M164.873 392.268C154.083 381.148 154.339 363.373 165.445 352.569V352.569C176.552 341.764 194.303 342.021 205.093 353.141V353.141C215.884 364.262 215.628 382.036 204.521 392.841V392.841C193.415 403.645 175.663 403.388 164.873 392.268V392.268Z" fill="white"/>
<path fill-rule="evenodd" clip-rule="evenodd" d="M162.421 392.268C151.632 381.149 151.886 363.373 162.993 352.569V352.569C174.099 341.764 191.852 342.022 202.641 353.141V353.141C213.43 364.26 213.176 382.036 202.069 392.84V392.84C190.963 403.645 173.21 403.387 162.421 392.268V392.268ZM196.19 386.785L175.585 383.154L189.326 379.712L189.327 379.713L193.164 366.053L196.19 386.785ZM168.868 358.628L191.569 364.42L187.652 377.986L173.995 381.516L168.868 358.628Z" fill="#73FDAA"/>
<path fill-rule="evenodd" clip-rule="evenodd" d="M517.27 174.833C522.892 167.932 533.04 166.899 539.934 172.53V172.53C546.828 178.16 547.856 188.322 542.234 195.223V195.223C536.612 202.124 526.464 203.156 519.57 197.526V197.526C512.676 191.895 511.648 181.733 517.27 174.833V174.833Z" fill="white"/>
<path fill-rule="evenodd" clip-rule="evenodd" d="M514.817 173.605C520.435 166.709 530.588 165.671 537.481 171.302V171.302C544.375 176.932 545.399 187.099 539.781 193.995V193.995C534.164 200.89 524.011 201.929 517.117 196.298V196.298C510.224 190.667 509.2 180.5 514.817 173.605V173.605ZM520.179 192.538L520.883 180.523L523.756 188.147L523.755 188.148L531.795 189.435L520.179 192.538ZM534.417 175.06L532.619 188.415L524.628 187.076L521.711 179.506L534.417 175.06Z" fill="#73FDAA"/>
<path d="M486.854 178.297H496.664" stroke="#28BC00" stroke-width="2" stroke-linecap="round" stroke-linejoin="round"/>
<path d="M502.182 188.119H476.43" stroke="#28BC00" stroke-width="2" stroke-linecap="round" stroke-linejoin="round"/>
<path d="M127.554 177.069H144.109" stroke="#28BC00" stroke-width="2" stroke-linecap="round" stroke-linejoin="round"/>
<path d="M157.598 186.892H131.846" stroke="#28BC00" stroke-width="2" stroke-linecap="round" stroke-linejoin="round"/>
<path fill-rule="evenodd" clip-rule="evenodd" d="M111.236 68.958C107.051 61.8088 109.442 52.5812 116.597 48.3814V48.3814C123.753 44.1817 132.962 46.6003 137.147 53.7495V53.7495C141.333 60.8987 138.941 70.1263 131.786 74.326V74.326C124.631 78.5257 115.422 76.1071 111.236 68.958V68.958ZM130.486 61.9581L125.307 64.9975C125.461 64.2695 125.591 63.537 125.699 62.8008C125.993 60.948 126.275 59.0933 126.545 57.2369C126.567 57.0853 126.601 56.9276 126.636 56.7678C126.732 56.3162 126.831 55.8519 126.695 55.4847C126.457 54.8169 126.068 54.2 125.667 53.5652C125.501 53.3059 125.34 53.0439 125.183 52.7791L121.97 54.6652L120.651 52.4136L118.076 53.9252L119.428 56.2339L116.479 57.9644L118.094 60.7224L123.06 57.8074C123 58.1589 122.939 58.488 122.881 58.8075C122.806 59.2139 122.735 59.6043 122.669 60.0041C122.375 61.857 122.093 63.7117 121.823 65.5682C121.805 65.7332 121.771 65.9082 121.737 66.0851C121.654 66.5126 121.569 66.9531 121.699 67.3049C121.938 67.9739 122.328 68.5924 122.724 69.2185C122.883 69.4705 123.043 69.7233 123.194 69.9816L126.381 68.111L127.716 70.3917L130.398 68.8179C130.147 68.4472 129.899 68.0746 129.655 67.7001C129.413 67.3325 129.17 66.9649 128.914 66.5869L132.1 64.7167L130.485 61.9583L130.486 61.9581Z" fill="#73FDAA"/>
<path d="M138.591 81.2961L144.722 87.4354" stroke="#28BC00" stroke-width="2" stroke-linecap="round" stroke-linejoin="round"/>
<path d="M447 64.7203C447 46.0958 462.098 30.9543 480.722 30.9543V30.9543C499.347 30.9543 514.445 46.0958 514.445 64.7203V64.7203C514.445 83.3448 499.347 98.4862 480.722 98.4862V98.4862C462.098 98.4862 447 83.3448 447 64.7203V64.7203Z" fill="white"/>
<path fill-rule="evenodd" clip-rule="evenodd" d="M479.496 34.6379C462.226 34.6379 448.226 48.6782 448.226 65.9482C448.226 83.2181 462.226 97.2584 479.496 97.2584C496.766 97.2584 510.766 83.2181 510.766 65.9482C510.766 48.6782 496.766 34.6379 479.496 34.6379ZM486.775 54.2953C491.04 55.7664 494.159 57.9716 493.546 62.0737C493.103 65.0766 491.44 66.5303 489.233 67.04C492.264 68.6199 493.806 71.0428 492.337 75.2432C490.513 80.46 486.182 80.9003 480.421 79.8087L479.023 85.4186L475.645 84.5756L477.025 79.0409C476.149 78.8232 475.255 78.592 474.333 78.3415L472.948 83.9022L469.574 83.0592L470.972 77.4388C470.657 77.3579 470.339 77.2751 470.02 77.1916C469.54 77.0663 469.055 76.9396 468.564 76.8164L464.168 75.7191L465.845 71.8473C465.845 71.8473 468.334 72.5101 468.3 72.461C469.257 72.698 469.681 72.0737 469.848 71.6575L472.057 62.7895C472.14 62.8094 472.221 62.8298 472.3 62.8494L472.3 62.8495L472.414 62.8781C472.28 62.8242 472.157 62.7895 472.063 62.7654L473.639 56.4349C473.681 55.7163 473.433 54.8097 472.065 54.4677C472.118 54.4321 469.612 53.8569 469.612 53.8569L470.51 50.2442L475.169 51.4089L475.165 51.4263C475.866 51.6006 476.587 51.7664 477.322 51.934L478.707 46.3791L482.083 47.222L480.726 52.6681C481.633 52.8752 482.545 53.0843 483.433 53.3059L484.78 47.8954L488.158 48.7384L486.775 54.2953ZM485.828 72.9109C484.87 76.7646 478.846 75.1714 476.089 74.4424C475.841 74.3768 475.62 74.3182 475.431 74.2712L477.286 66.8252C477.516 66.8827 477.797 66.9459 478.116 67.0175C480.967 67.658 486.809 68.9707 485.828 72.9109ZM478.689 63.562C480.987 64.176 486 65.5155 486.873 62.013C487.764 58.4305 482.892 57.3505 480.513 56.8231C480.245 56.7638 480.009 56.7114 479.816 56.6633L478.134 63.4167C478.293 63.4563 478.48 63.5061 478.689 63.562Z" fill="#73FDAA"/>
<path fill-rule="evenodd" clip-rule="evenodd" d="M87.3045 167.63C79.3959 174.624 78.6515 186.718 85.6315 194.631C92.6116 202.545 104.689 203.3 112.598 196.306C120.506 189.313 121.251 177.219 114.271 169.305C107.291 161.392 95.213 160.637 87.3045 167.63ZM98.5773 173.685C101.125 172.631 103.444 172.378 104.82 174.505C105.83 176.059 105.656 177.398 104.851 178.525C106.877 178.022 108.562 178.507 109.586 181.025C110.858 184.152 109.052 186.108 105.973 187.941L107.599 191.076L105.712 192.058L104.108 188.965C103.619 189.22 103.116 189.476 102.592 189.735L104.205 192.842L102.319 193.822L100.689 190.682C100.512 190.773 100.333 190.863 100.153 190.955C99.8825 191.092 99.6092 191.23 99.3346 191.372L96.8783 192.65L96.0824 190.198C96.0824 190.198 97.4899 189.494 97.4547 189.485C97.9883 189.206 97.9305 188.748 97.8391 188.49L95.2687 183.534C95.3148 183.51 95.3603 183.486 95.4042 183.463L95.468 183.43C95.3845 183.46 95.3146 183.494 95.2617 183.521L93.4264 179.984C93.1551 179.638 92.6757 179.323 91.911 179.72C91.9208 179.683 90.5407 180.434 90.5407 180.434L89.493 178.416L92.0969 177.063L92.1021 177.072C92.4933 176.868 92.8907 176.652 93.295 176.431L91.6853 173.327L93.5719 172.345L95.1504 175.389C95.6491 175.117 96.1512 174.843 96.6474 174.585L95.0789 171.562L96.9664 170.58L98.5773 173.685ZM105.663 182.593C106.781 184.745 103.378 186.455 101.822 187.238C101.682 187.308 101.557 187.371 101.451 187.426L99.2929 183.265C99.4216 183.198 99.5759 183.113 99.7507 183.017C101.315 182.156 104.521 180.391 105.663 182.593ZM98.6173 181.203C99.9178 180.553 102.754 179.137 101.74 177.179C100.701 175.178 98.0335 176.656 96.7308 177.378C96.5843 177.459 96.455 177.531 96.3473 177.587L98.3049 181.361C98.3937 181.315 98.4992 181.262 98.6173 181.203Z" fill="#73FDAA"/>
<path d="M205.423 340.987L224.43 321.955" stroke="#28BC00" stroke-width="2" stroke-linecap="round" stroke-linejoin="round"/>
<path d="M217.686 342.829L244.051 316.43" stroke="#28BC00" stroke-width="2" stroke-linecap="round" stroke-linejoin="round"/>
<path d="M433.511 110.151L447.613 96.0305" stroke="#28BC00" stroke-width="2" stroke-linecap="round" stroke-linejoin="round"/>
<path d="M457.423 99.7141L434.124 123.043" stroke="#28BC00" stroke-width="2" stroke-linecap="round" stroke-linejoin="round"/>
<path d="M141.656 73.3152L155.145 86.8216" stroke="#28BC00" stroke-width="2" stroke-linecap="round" stroke-linejoin="round"/>
<path d="M467.846 323.183L476.43 331.778" stroke="#28BC00" stroke-width="2" stroke-linecap="round" stroke-linejoin="round"/>
<path d="M451.905 320.113L472.752 340.987" stroke="#28BC00" stroke-width="2" stroke-linecap="round" stroke-linejoin="round"/>
<path d="M538.358 302.31L543.263 307.221" stroke="#28BC00" stroke-width="2" stroke-linecap="round" stroke-linejoin="round"/>
<path d="M526.095 301.082L534.679 309.677" stroke="#28BC00" stroke-width="2" stroke-linecap="round" stroke-linejoin="round"/>
<defs>
<linearGradient id="paint0_linear_2_76" x1="266.539" y1="82.7222" x2="201.634" y2="-8.25826" gradientUnits="userSpaceOnUse">
<stop stop-color="#28BC00"/>
<stop offset="1" stop-color="#28BC00" stop-opacity="0"/>
</linearGradient>
<linearGradient id="paint1_linear_2_76" x1="91.9922" y1="105.853" x2="79.7294" y2="105.853" gradientUnits="userSpaceOnUse">
<stop stop-color="#73FDAA" stop-opacity="0.89"/>
<stop offset="1" stop-color="#EEEEFF" stop-opacity="0"/>
</linearGradient>
<linearGradient id="paint2_linear_2_76" x1="467.233" y1="130.41" x2="454.971" y2="130.41" gradientUnits="userSpaceOnUse">
<stop stop-color="#73FDAA" stop-opacity="0.89"/>
<stop offset="1" stop-color="#EEEEFF" stop-opacity="0"/>
</linearGradient>
<linearGradient id="paint3_linear_2_76" x1="556.752" y1="77.6128" x2="544.489" y2="77.6128" gradientUnits="userSpaceOnUse">
<stop stop-color="#73FDAA" stop-opacity="0.89"/>
<stop offset="1" stop-color="#EEEEFF" stop-opacity="0"/>
</linearGradient>
<linearGradient id="paint4_linear_2_76" x1="169.248" y1="315.816" x2="156.985" y2="315.816" gradientUnits="userSpaceOnUse">
<stop stop-color="#73FDAA" stop-opacity="0.89"/>
<stop offset="1" stop-color="#EEEEFF" stop-opacity="0"/>
</linearGradient>
<linearGradient id="paint5_linear_2_76" x1="441.282" y1="272.87" x2="134.722" y2="238.704" gradientUnits="userSpaceOnUse">
<stop/>
<stop offset="1" stop-opacity="0"/>
</linearGradient>
<linearGradient id="paint6_linear_2_76" x1="398.176" y1="220.376" x2="363.509" y2="217.271" gradientUnits="userSpaceOnUse">
<stop stop-color="#DADAFF"/>
<stop offset="1" stop-color="#EEEEFF" stop-opacity="0"/>
</linearGradient>
<linearGradient id="paint7_linear_2_76" x1="370.375" y1="72.4899" x2="194.039" y2="55.99" gradientUnits="userSpaceOnUse">
<stop stop-color="#DADAFF"/>
<stop offset="1" stop-color="#EEEEFF" stop-opacity="0"/>
</linearGradient>
<linearGradient id="paint8_linear_2_76" x1="441.748" y1="246.71" x2="433.066" y2="238.038" gradientUnits="userSpaceOnUse">
<stop stop-color="#73FDAA" stop-opacity="0.89"/>
<stop offset="1" stop-color="#EEEEFF" stop-opacity="0"/>
</linearGradient>
<linearGradient id="paint9_linear_2_76" x1="360.774" y1="365.75" x2="-91.8705" y2="306.402" gradientUnits="userSpaceOnUse">
<stop stop-color="#DADAFF"/>
<stop offset="1" stop-color="#EEEEFF" stop-opacity="0"/>
</linearGradient>
<linearGradient id="paint10_linear_2_76" x1="432.604" y1="416.311" x2="357.948" y2="295.803" gradientUnits="userSpaceOnUse">
<stop stop-color="#28BC00"/>
<stop offset="1" stop-color="#28BC00" stop-opacity="0"/>
</linearGradient>
<linearGradient id="paint11_linear_2_76" x1="619.573" y1="243.521" x2="474.173" y2="228.536" gradientUnits="userSpaceOnUse">
<stop stop-color="#DADAFF"/>
<stop offset="1" stop-color="#EEEEFF" stop-opacity="0"/>
</linearGradient>
</defs>
</svg>
